<?xml version="1.0" encoding="UTF-8"?>
<svg width="411px" height="78px" viewBox="0 0 411 78" version="1.1" xmlns="http://www.w3.org/2000/svg" xmlns:xlink="http://www.w3.org/1999/xlink">
    <!-- Generator: Sketch 51.3 (57544) - http://www.bohemiancoding.com/sketch -->
    <title>Group</title>
    <desc>Created with Sketch.</desc>
    <defs></defs>
    <g id="Page-1" stroke="none" stroke-width="1" fill="none" fill-rule="evenodd">
        <g id="rushton_electronics_logos_2" transform="translate(-210.000000, -67.000000)">
            <g id="Group" transform="translate(210.000000, 67.000000)">
                <g id="Group-7-Copy-4" fill="#2FA948">
                    <path d="M44,78 C19.7383684,78 0,58.2618746 0,34 L4.6077495,34 C4.6077495,55.7213613 22.2789129,73.3923072 44,73.3923072 L44,78 Z" id="Fill-1"></path>
                    <path d="M43,67 C24.8038776,67 10,51.9718212 10,33.5 C10,15.0281788 24.8038776,0 43,0 L43,4.59728697 C27.300821,4.59728697 14.5286707,17.5629547 14.5286707,33.5 C14.5286707,49.4370453 27.300821,62.402713 43,62.402713 L43,67 Z" id="Fill-3"></path>
                    <path d="M43.9999781,57 C37.6557381,57 31.7483641,54.4723803 27.3657166,49.8830665 C22.9846832,45.2964428 20.7331021,39.2706147 21.0252428,32.9165941 C21.565407,21.1807557 31.1812992,11.5647176 42.9169595,11.0250831 C49.2703457,10.7340141 55.2960824,12.9840153 59.8831745,17.3651152 C64.4724186,21.7483672 67,27.6558309 67,33.9996291 L62.4225921,33.9996291 C62.4225921,28.9185647 60.3980522,24.1861375 56.7218148,20.6750165 C53.0477294,17.1665857 48.2239119,15.3631414 43.1273223,15.5977183 C33.7304011,16.0297486 26.0303703,23.7298962 25.5978085,33.12696 C25.3637732,38.2198609 27.1666521,43.0480557 30.6755677,46.7216588 C34.1866354,50.397952 38.9184528,52.4225227 43.9999781,52.4225227 L43.9999781,57 Z" id="Fill-5"></path>
                </g>
                <text id="Rushton-Electronics" font-family="MavenPro-Medium, Maven Pro" font-size="36" font-weight="400" fill="#1C1D1B">
                    <tspan x="81" y="58">Rushton Electronic</tspan>
                    <tspan x="395.388" y="58" letter-spacing="4.08999979">s</tspan>
                </text>
            </g>
        </g>
    </g>
</svg>